<?xml version="1.0" encoding="UTF-8"?>
<!--Generator: Apple Native CoreSVG 326-->
<!DOCTYPE svg
PUBLIC "-//W3C//DTD SVG 1.1//EN"
       "http://www.w3.org/Graphics/SVG/1.1/DTD/svg11.dtd">
<svg version="1.1" xmlns="http://www.w3.org/2000/svg" xmlns:xlink="http://www.w3.org/1999/xlink" viewBox="0 0 444.25 352.5">
 <g>
  <rect height="352.5" opacity="0" width="444.25" x="0" y="0"/>
  <path d="M107.421 109.065C68.9528 134.656 45.125 165.89 45.125 176.438C45.125 198.813 121.938 281 222.125 281C239.759 281 256.675 278.448 272.523 274.017L302.253 303.721C278.088 312.224 251.179 317.313 222.125 317.313C90.1875 317.313 0 209.375 0 176.438C0 157.613 29.407 114.446 79.2061 80.8747ZM444.25 176.438C444.25 194.947 416.36 237.143 368.172 270.555L340.191 242.587C376.702 218.029 399.125 188.517 399.125 176.438C399.125 157.5 322.188 71.8751 222.125 71.8751C205.919 71.8751 190.324 74.1156 175.657 78.1266L145.717 48.2004C169.003 40.3084 194.665 35.6251 222.125 35.6251C355.688 35.6251 444.25 143.438 444.25 176.438ZM251.992 253.505C242.782 257.161 232.723 259.125 222.188 259.125C176.375 259.125 139.25 221.688 139.25 176.125C139.25 165.633 141.192 155.608 144.817 146.426ZM305.125 176.125C305.125 185.524 303.553 194.577 300.578 202.991L195.353 97.814C203.744 94.8692 212.783 93.3126 222.188 93.3126C268.188 93.3126 305.125 130.313 305.125 176.125Z" fill="white" fill-opacity="0.85"/>
  <path d="M352.125 321.938C357.062 326.938 365.062 327.125 370.125 321.938C375.188 316.688 375.062 309 370.125 304L92 26.1251C87.125 21.1876 78.9375 21.1251 73.9375 26.1251C69.0625 30.8751 69.0625 39.2501 73.9375 44.0626Z" fill="white" fill-opacity="0.85"/>
 </g>
</svg>
