<?xml version="1.0" encoding="UTF-8"?>
<!--Generator: Apple Native CoreSVG 326-->
<!DOCTYPE svg
PUBLIC "-//W3C//DTD SVG 1.1//EN"
       "http://www.w3.org/Graphics/SVG/1.1/DTD/svg11.dtd">
<svg version="1.1" xmlns="http://www.w3.org/2000/svg" xmlns:xlink="http://www.w3.org/1999/xlink" viewBox="0 0 444.25 282.125">
 <g>
  <rect height="282.125" opacity="0" width="444.25" x="0" y="0"/>
  <path d="M222.125 282.125C355.938 282.125 444.25 174.188 444.25 141.25C444.25 108.25 355.688 0.4375 222.125 0.4375C90.375 0.4375 0 108.25 0 141.25C0 174.188 90.1875 282.125 222.125 282.125ZM222.125 245.812C121.938 245.812 45.125 163.625 45.125 141.25C45.125 122.312 121.938 36.6875 222.125 36.6875C322.188 36.6875 399.125 122.312 399.125 141.25C399.125 163.625 322.188 245.812 222.125 245.812ZM222.188 223.938C268.188 223.938 305.125 186.5 305.125 140.938C305.125 95.125 268.188 58.125 222.188 58.125C176.375 58.125 139.25 95.0625 139.25 140.938C139.25 186.5 176.375 223.938 222.188 223.938ZM222.062 166.812C207.938 166.812 196.625 155.188 196.625 141.125C196.625 127 207.938 115.5 222.062 115.5C236.312 115.5 247.75 127 247.75 141.125C247.75 155.188 236.312 166.812 222.062 166.812Z" fill="white" fill-opacity="0.85"/>
 </g>
</svg>
